<svg width="140" height="140" viewBox="0 0 140 140" fill="none" xmlns="http://www.w3.org/2000/svg">
<g clip-path="url(#clip0_485_20882)">
<rect width="140" height="140" rx="70" fill="#B4B4FF"/>
<path d="M80.3179 44.0164C47.231 -1.87537 8.98637 23.2329 -6.00006 41.5235L79.75 -107L208.355 -32.75L162.605 46.4913C148.962 64.7879 113.405 89.9082 80.3179 44.0164Z" fill="url(#paint0_linear_485_20882)"/>
<path d="M80.6418 73.2731C136.488 82.3275 145.777 37.5303 143.441 13.9999L187.828 179.656L44.3881 218.091L20.7062 129.709C17.4154 107.124 24.7955 64.2187 80.6418 73.2731Z" fill="url(#paint1_linear_485_20882)"/>
<rect x="20" y="32" width="100" height="108" rx="16" fill="white"/>
<rect x="32" y="106" width="76" height="14" rx="7" fill="#EFF0F9"/>
<rect x="37" y="111" width="35" height="4" rx="2" fill="#DFE1EF"/>
<rect x="20" y="32" width="100" height="108" rx="16" fill="url(#paint2_linear_485_20882)"/>
<circle cx="70" cy="62" r="16" fill="#1CBE8E"/>
<path d="M70 62C72.0711 62 73.75 60.3211 73.75 58.25C73.75 56.1789 72.0711 54.5 70 54.5C67.9289 54.5 66.25 56.1789 66.25 58.25C66.25 60.3211 67.9289 62 70 62Z" fill="white"/>
<path d="M70.0001 63.875C66.2426 63.875 63.1826 66.395 63.1826 69.5C63.1826 69.71 63.3476 69.875 63.5576 69.875H76.4426C76.6526 69.875 76.8176 69.71 76.8176 69.5C76.8176 66.395 73.7576 63.875 70.0001 63.875Z" fill="white"/>
<rect x="32" y="136" width="76" height="14" rx="7" fill="#555857"/>
<rect x="32" y="86" width="76" height="14" rx="7" fill="#EFF0F9"/>
<rect x="37" y="91" width="14" height="4" rx="2" fill="#DFE1EF"/>
</g>
<defs>
<linearGradient id="paint0_linear_485_20882" x1="29.4106" y1="-208.81" x2="58.3023" y2="78.6485" gradientUnits="userSpaceOnUse">
<stop stop-color="white" stop-opacity="0.39"/>
<stop offset="1" stop-color="white" stop-opacity="0"/>
</linearGradient>
<linearGradient id="paint1_linear_485_20882" x1="295.414" y1="216.051" x2="71.7206" y2="33.2172" gradientUnits="userSpaceOnUse">
<stop stop-color="white" stop-opacity="0.39"/>
<stop offset="1" stop-color="white" stop-opacity="0"/>
</linearGradient>
<linearGradient id="paint2_linear_485_20882" x1="70" y1="32" x2="70" y2="195.5" gradientUnits="userSpaceOnUse">
<stop offset="0.409027" stop-color="#DDD9E8" stop-opacity="0"/>
<stop offset="1" stop-color="#DDD9E8"/>
</linearGradient>
<clipPath id="clip0_485_20882">
<rect width="140" height="140" rx="70" fill="white"/>
</clipPath>
</defs>
</svg>
