<svg width="877" height="167" viewBox="0 0 877 167" fill="none" xmlns="http://www.w3.org/2000/svg">
<path d="M860.722 59.2951C869.609 50.4171 869.594 36.0075 860.707 27.1295C851.82 18.2515 837.396 18.236 828.508 27.114C819.621 35.9921 819.637 50.4016 828.524 59.2796C837.411 68.1576 851.835 68.1731 860.722 59.2951Z" fill="#616FAB" fill-opacity="0.2"/>
<path d="M815.402 51.3302C824.289 42.4522 824.274 28.0427 815.387 19.1647C806.499 10.2867 792.075 10.2712 783.188 19.1492C774.301 28.0272 774.317 42.4368 783.204 51.3148C792.091 60.1928 806.515 60.2082 815.402 51.3302Z" fill="#616FAB" fill-opacity="0.2"/>
<path d="M769.941 48.256C778.828 39.378 778.813 24.9684 769.926 16.0904C761.039 7.21244 746.614 7.19698 737.727 16.075C728.84 24.953 728.856 39.3625 737.743 48.2405C746.63 57.1185 761.054 57.134 769.941 48.256Z" fill="#616FAB" fill-opacity="0.2"/>
<path d="M724.34 51.0509C733.228 42.1729 733.212 27.7634 724.325 18.8854C715.438 10.0074 701.014 9.9919 692.127 18.8699C683.24 27.7479 683.255 42.1575 692.142 51.0355C701.029 59.9135 715.453 59.9289 724.34 51.0509Z" fill="#616FAB" fill-opacity="0.2"/>
<path d="M678.881 60.2736C687.768 51.3956 687.752 36.986 678.865 28.108C669.978 19.23 655.554 19.2146 646.667 28.0926C637.78 36.9706 637.795 51.3801 646.682 60.2581C655.569 69.1361 669.993 69.1516 678.881 60.2736Z" fill="#616FAB" fill-opacity="0.2"/>
<path d="M633.559 71.3126C642.446 62.4346 642.431 48.0251 633.544 39.1471C624.657 30.2691 610.232 30.2536 601.345 39.1316C592.458 48.0096 592.474 62.4192 601.361 71.2972C610.248 80.1752 624.672 80.1906 633.559 71.3126Z" fill="#616FAB" fill-opacity="0.2"/>
<path d="M589.917 84.3078C598.804 75.4298 598.788 61.0202 589.901 52.1422C581.014 43.2642 566.59 43.2487 557.703 52.1267C548.816 61.0047 548.831 75.4143 557.718 84.2923C566.605 93.1703 581.03 93.1858 589.917 84.3078Z" fill="#616FAB" fill-opacity="0.2"/>
<path d="M545.715 100.937C554.602 92.0587 554.586 77.6491 545.699 68.7711C536.812 59.8931 522.388 59.8776 513.501 68.7556C504.614 77.6337 504.629 92.0432 513.516 100.921C522.403 109.799 536.827 109.815 545.715 100.937Z" fill="#616FAB" fill-opacity="0.2"/>
<path d="M501.653 119.661C510.54 110.783 510.525 96.3737 501.638 87.4957C492.75 78.6177 478.326 78.6023 469.439 87.4803C460.552 96.3583 460.568 110.768 469.455 119.646C478.342 128.524 492.766 128.539 501.653 119.661Z" fill="#616FAB" fill-opacity="0.2"/>
<path d="M453.922 135.344C462.904 126.371 462.888 111.807 453.906 102.834C444.924 93.8613 430.345 93.8456 421.363 102.819C412.381 111.792 412.397 126.355 421.379 135.328C430.361 144.301 444.94 144.317 453.922 135.344Z" fill="#616FAB" fill-opacity="0.2"/>
<path d="M402.34 146.211C411.227 137.333 411.211 122.924 402.324 114.046C393.437 105.168 379.013 105.152 370.126 114.03C361.239 122.908 361.254 137.318 370.141 146.196C379.028 155.074 393.452 155.089 402.34 146.211Z" fill="#616FAB" fill-opacity="0.2"/>
<path d="M350.444 150.683C359.331 141.805 359.316 127.395 350.429 118.517C341.541 109.639 327.117 109.624 318.23 118.502C309.343 127.38 309.359 141.789 318.246 150.667C327.133 159.545 341.557 159.561 350.444 150.683Z" fill="#616FAB" fill-opacity="0.2"/>
<path d="M262.123 148.4L266.661 152.934C274.304 160.569 286.694 160.569 294.337 152.934L298.844 148.431C306.487 140.797 306.487 128.419 298.844 120.784L294.306 116.25C286.663 108.616 274.273 108.616 266.63 116.25L262.123 120.753C254.48 128.388 254.48 140.766 262.123 148.4Z" fill="#616FAB" fill-opacity="0.2"/>
<path d="M205.509 140.054L216.967 151.5C222.698 157.225 231.991 157.225 237.723 151.5L249.149 140.085C254.881 134.359 254.881 125.075 249.149 119.349L237.692 107.904C231.96 102.178 222.667 102.178 216.936 107.904L205.509 119.319C199.777 125.044 199.777 134.328 205.509 140.054Z" fill="#616FAB" fill-opacity="0.2"/>
<path d="M147.917 126.398L166.293 144.755C170.114 148.573 176.31 148.573 180.131 144.755L198.476 126.429C202.297 122.611 202.297 116.422 198.476 112.605L180.1 94.2476C176.279 90.4304 170.083 90.4304 166.262 94.2476L147.917 112.574C144.096 116.391 144.096 122.58 147.917 126.398Z" fill="#616FAB" fill-opacity="0.2"/>
<path d="M44.9014 87.3463L77.1152 119.527L109.298 87.3772L77.0843 55.1962L44.9014 87.3463Z" fill="#616FAB" fill-opacity="0.2"/>
<path d="M-9.35074e-06 67.7828L32.2139 99.9639L64.3968 67.8138L32.1829 35.6327L-9.35074e-06 67.7828Z" fill="#616FAB" fill-opacity="0.2"/>
<path d="M95.6391 107.571L120.934 132.84C122.845 134.749 125.942 134.749 127.853 132.84L153.117 107.602C155.028 105.693 155.028 102.599 153.117 100.69L127.822 75.4206C125.911 73.512 122.814 73.512 120.903 75.4206L95.6391 100.659C93.7285 102.568 93.7285 105.662 95.6391 107.571Z" fill="#616FAB" fill-opacity="0.2"/>
</svg>
