<svg width="953" height="174" viewBox="0 0 953 174" fill="none" xmlns="http://www.w3.org/2000/svg">
<path d="M18.2588 108.115C8.56249 116.935 8.49218 131.344 18.0811 140.28C27.6701 149.216 43.3206 149.326 53.0169 140.507C62.7131 131.687 62.7834 117.278 53.1945 108.342C43.6055 99.4057 27.955 99.2957 18.2588 108.115Z" fill="#616FAB" fill-opacity="0.2"/>
<path d="M67.3838 116.377C57.6875 125.197 57.6172 139.606 67.2061 148.542C76.7951 157.478 92.4456 157.588 102.142 148.769C111.838 139.949 111.908 125.54 102.319 116.604C92.7305 107.667 77.08 107.557 67.3838 116.377Z" fill="#616FAB" fill-opacity="0.2"/>
<path d="M116.69 119.75C106.994 128.569 106.924 142.978 116.513 151.915C126.102 160.851 141.752 160.961 151.448 152.141C161.145 143.322 161.215 128.912 151.626 119.976C142.037 111.04 126.387 110.93 116.69 119.75Z" fill="#616FAB" fill-opacity="0.2"/>
<path d="M166.186 117.254C156.489 126.073 156.419 140.483 166.008 149.419C175.597 158.355 191.247 158.465 200.944 149.646C210.64 140.826 210.71 126.417 201.121 117.481C191.532 108.544 175.882 108.434 166.186 117.254Z" fill="#616FAB" fill-opacity="0.2"/>
<path d="M215.566 108.33C205.87 117.149 205.8 131.559 215.389 140.495C224.978 149.431 240.628 149.541 250.324 140.721C260.021 131.902 260.091 117.492 250.502 108.556C240.913 99.6201 225.263 99.51 215.566 108.33Z" fill="#616FAB" fill-opacity="0.2"/>
<path d="M264.808 97.5879C255.111 106.407 255.041 120.817 264.63 129.753C274.219 138.689 289.869 138.799 299.566 129.98C309.262 121.16 309.332 106.751 299.743 97.8145C290.154 88.8784 274.504 88.7683 264.808 97.5879Z" fill="#616FAB" fill-opacity="0.2"/>
<path d="M312.239 84.8789C302.543 93.6985 302.473 108.108 312.062 117.044C321.651 125.98 337.301 126.09 346.997 117.271C356.694 108.451 356.764 94.0416 347.175 85.1055C337.586 76.1694 321.936 76.0593 312.239 84.8789Z" fill="#616FAB" fill-opacity="0.2"/>
<path d="M360.299 68.5405C350.603 77.3601 350.532 91.7695 360.121 100.706C369.71 109.642 385.361 109.752 395.057 100.932C404.753 92.1126 404.823 77.7033 395.235 68.7671C385.646 59.831 369.995 59.721 360.299 68.5405Z" fill="#616FAB" fill-opacity="0.2"/>
<path d="M408.22 50.105C398.523 58.9245 398.453 73.3339 408.042 82.27C417.631 91.2062 433.282 91.3162 442.978 82.4967C452.674 73.6771 452.744 59.2677 443.155 50.3316C433.566 41.3955 417.916 41.2854 408.22 50.105Z" fill="#616FAB" fill-opacity="0.2"/>
<path d="M460.103 34.7353C450.303 43.6492 450.232 58.2127 459.924 67.2444C469.615 76.2761 485.433 76.3873 495.233 67.4734C505.033 58.5595 505.104 43.996 495.413 34.9643C485.721 25.9326 469.903 25.8214 460.103 34.7353Z" fill="#616FAB" fill-opacity="0.2"/>
<path d="M516.138 24.2065C506.441 33.0261 506.371 47.4355 515.96 56.3716C525.549 65.3077 541.199 65.4178 550.896 56.5982C560.592 47.7787 560.662 33.3693 551.073 24.4331C541.484 15.497 525.834 15.387 516.138 24.2065Z" fill="#616FAB" fill-opacity="0.2"/>
<path d="M572.472 20.0757C562.775 28.8952 562.705 43.3046 572.294 52.2408C581.883 61.1769 597.533 61.2869 607.23 52.4674C616.926 43.6478 616.996 29.2384 607.407 20.3023C597.818 11.3662 582.168 11.2561 572.472 20.0757Z" fill="#616FAB" fill-opacity="0.2"/>
<path d="M668.909 23.5168L662.769 17.7948C654.866 10.4302 641.982 10.3523 633.991 17.6209L627.816 23.2375C619.825 30.5061 619.753 42.3686 627.656 49.7333L633.796 55.4553C641.698 62.8199 654.583 62.8978 662.574 55.6292L668.749 50.0126C676.74 42.744 676.812 30.8814 668.909 23.5168Z" fill="#616FAB" fill-opacity="0.2"/>
<path d="M730.13 32.0898L716.835 19.7004C710.908 14.1769 701.245 14.1185 695.252 19.5699L681.842 31.767C675.849 37.2184 675.795 46.1153 681.722 51.6388L695.016 64.0282C700.943 69.5517 710.607 69.6101 716.6 64.1587L730.01 51.9616C736.003 46.5102 736.057 37.6133 730.13 32.0898Z" fill="#616FAB" fill-opacity="0.2"/>
<path d="M792.381 45.9787L771.932 26.9218C767.981 23.2395 761.538 23.2006 757.543 26.8348L736.899 45.6124C732.903 49.2467 732.867 55.178 736.819 58.8603L757.268 77.9171C761.219 81.5994 767.661 81.6384 771.657 78.0041L792.301 59.2265C796.296 55.5923 796.332 49.661 792.381 45.9787Z" fill="#616FAB" fill-opacity="0.2"/>
<path d="M903.609 85.4151L868.851 53.0234L833.737 84.9619L868.495 117.354L903.609 85.4151Z" fill="#616FAB" fill-opacity="0.2"/>
<path d="M952.207 105.272L917.449 72.8804L882.336 104.819L917.094 137.211L952.207 105.272Z" fill="#616FAB" fill-opacity="0.2"/>
<path d="M848.833 65.0033L821.23 39.279C819.254 37.4379 816.033 37.4184 814.035 39.2355L786.156 64.5935C784.159 66.4107 784.141 69.3763 786.116 71.2175L813.72 96.9417C815.696 98.7829 818.917 98.8024 820.914 96.9852L848.793 71.6272C850.791 69.8101 850.809 66.8444 848.833 65.0033Z" fill="#616FAB" fill-opacity="0.2"/>
</svg>
